<svg xmlns="http://www.w3.org/2000/svg" width="300" height="200" viewBox="0 0 300 200"><rect width="100%" height="100%" fill="#111111"/><path fill="#F5F5F5" d="M67.11 100.315h8.74l-3.35-9.14q-.25-.61-.51-1.45-.27-.83-.53-1.8-.25.97-.52 1.81-.26.85-.51 1.48l-3.32 9.1Zm6.97-17.1 10.79 27.47h-3.95q-.67 0-1.08-.33-.42-.34-.63-.83l-2.05-5.6H65.78l-2.06 5.6q-.15.44-.59.8-.43.36-1.08.36h-3.99l10.81-27.47h5.21Zm18.96 27.47h-4.69v-15.96l-1.69-.27q-.55-.11-.89-.39-.33-.27-.33-.78v-1.92h2.91v-1.45q0-1.67.5-3t1.45-2.26q.94-.93 2.28-1.42 1.35-.5 3.04-.5 1.35 0 2.51.36l-.09 2.36q-.02.26-.15.43-.14.16-.36.24-.21.09-.5.12-.28.03-.61.03-.83 0-1.49.18-.65.18-1.11.62-.46.45-.69 1.18-.24.73-.24 1.82v1.29h5.07v3.34h-4.92v15.98Zm12.26-13.79v8.74q.79.97 1.73 1.36.94.4 1.99.4 1.08 0 1.95-.39.86-.39 1.47-1.21.61-.83.93-2.11.32-1.28.32-3.07 0-3.21-1.06-4.65-1.06-1.43-3.06-1.43-1.35 0-2.36.62-1 .62-1.91 1.74Zm0-14.44v11.13q1.17-1.24 2.61-1.97 1.43-.73 3.28-.73 1.69 0 3.05.67 1.35.66 2.31 1.91.96 1.24 1.48 3.01.51 1.76.51 3.97 0 2.37-.59 4.31-.59 1.94-1.68 3.32-1.09 1.38-2.63 2.14-1.54.75-3.42.75-.92 0-1.66-.18-.74-.18-1.36-.5-.63-.32-1.15-.79-.53-.46-1-1.03l-.21 1.31q-.11.49-.39.7-.28.21-.75.21h-3.1v-28.23h4.7Zm20.57 16.24h8.86q0-.91-.26-1.72-.26-.81-.77-1.41-.51-.61-1.3-.96t-1.83-.35q-2.04 0-3.21 1.15-1.16 1.16-1.49 3.29Zm11.97 2.83h-12.06q.11 1.5.53 2.6.42 1.09 1.1 1.8.69.71 1.63 1.06.94.36 2.08.36 1.14 0 1.96-.27.83-.27 1.45-.59.61-.32 1.08-.59.47-.26.9-.26.59 0 .88.43l1.35 1.71q-.78.92-1.75 1.53-.97.62-2.03.99-1.05.37-2.14.52-1.1.15-2.12.15-2.03 0-3.78-.67t-3.04-1.99q-1.29-1.33-2.04-3.27-.74-1.95-.74-4.51 0-2 .65-3.76.65-1.75 1.85-3.06 1.21-1.3 2.95-2.06 1.74-.76 3.92-.76 1.84 0 3.4.59 1.56.59 2.68 1.72t1.76 2.77q.63 1.65.63 3.76 0 1.06-.22 1.43-.23.37-.88.37Zm8.32-2.83h8.86q0-.91-.26-1.72-.25-.81-.77-1.41-.51-.61-1.3-.96t-1.83-.35q-2.04 0-3.2 1.15-1.17 1.16-1.5 3.29Zm11.97 2.83h-12.06q.11 1.5.53 2.6.42 1.09 1.1 1.8.69.71 1.63 1.06.94.36 2.08.36 1.14 0 1.97-.27.82-.27 1.44-.59.62-.32 1.08-.59.47-.26.9-.26.59 0 .88.43l1.35 1.71q-.78.92-1.75 1.53-.97.62-2.02.99-1.06.37-2.15.52-1.09.15-2.12.15-2.03 0-3.78-.67t-3.04-1.99q-1.29-1.33-2.03-3.27-.74-1.95-.74-4.51 0-2 .64-3.76.65-1.75 1.85-3.06 1.21-1.3 2.95-2.06 1.74-.76 3.92-.76 1.85 0 3.4.59 1.56.59 2.68 1.72t1.76 2.77q.64 1.65.64 3.76 0 1.06-.23 1.43-.23.37-.88.37Zm4.68-19.07h4.69v28.23h-4.69v-28.23Zm21.62 22.45v-8.74q-.8-.96-1.74-1.36-.94-.4-2.02-.4-1.07 0-1.92.4-.86.4-1.46 1.2-.61.81-.93 2.05-.33 1.25-.33 2.94 0 1.71.28 2.9.27 1.19.79 1.94.51.75 1.25 1.08.74.33 1.65.33 1.47 0 2.49-.61 1.03-.61 1.94-1.73Zm0-22.45h4.69v28.23h-2.87q-.93 0-1.17-.85l-.4-1.89q-1.18 1.35-2.71 2.19-1.53.83-3.56.83-1.6 0-2.93-.66t-2.29-1.93q-.96-1.26-1.48-3.12-.52-1.87-.52-4.26 0-2.17.59-4.03.59-1.86 1.69-3.23 1.1-1.37 2.64-2.14t3.46-.77q1.63 0 2.79.52 1.16.51 2.07 1.39v-10.28Zm9.48 8.74h4.71v19.49h-4.71v-19.49Zm5.36-5.69q0 .61-.25 1.14-.24.54-.65.94-.41.4-.96.63-.55.24-1.18.24-.61 0-1.15-.24-.54-.23-.94-.63-.4-.4-.64-.94-.23-.53-.23-1.14 0-.62.23-1.17.24-.55.64-.95.4-.4.94-.64.54-.24 1.15-.24.63 0 1.18.24.55.24.96.64.41.4.65.95.25.55.25 1.17Zm8.21 6.54.32 1.54q.59-.59 1.25-1.09.65-.51 1.38-.86.73-.35 1.57-.55.84-.2 1.82-.2 1.6 0 2.83.54 1.24.55 2.07 1.52.82.98 1.25 2.34.43 1.36.43 2.99v12.41h-4.7v-12.41q0-1.78-.81-2.76-.82-.98-2.49-.98-1.22 0-2.28.55-1.07.55-2.02 1.5v14.1h-4.69v-19.49h2.87q.91 0 1.2.85Zm24.49 8.42q.87 0 1.52-.24.64-.24 1.07-.66.43-.41.65-1 .22-.59.22-1.29 0-1.45-.87-2.29-.86-.85-2.59-.85t-2.59.85q-.87.84-.87 2.29 0 .68.22 1.27t.65 1.02q.42.42 1.08.66.65.24 1.51.24Zm5.3 11.09q0-.57-.34-.93-.34-.36-.93-.56-.59-.2-1.38-.29-.79-.1-1.67-.14-.89-.05-1.83-.09-.94-.04-1.83-.15-.78.44-1.26 1.02-.49.59-.49 1.37 0 .51.26.96.25.45.82.77.56.32 1.45.5.89.19 2.18.19 1.31 0 2.26-.2.95-.2 1.57-.56.62-.35.9-.83.29-.49.29-1.06Zm-.93-19.7h5.6v1.75q0 .83-1 1.03l-1.75.32q.4 1.01.4 2.2 0 1.45-.58 2.61-.58 1.17-1.61 1.99-1.02.82-2.42 1.26-1.4.45-3.01.45-.57 0-1.1-.06-.54-.05-1.05-.15-.91.55-.91 1.24 0 .59.54.86.54.28 1.44.39.89.11 2.03.14 1.14.03 2.34.13 1.19.09 2.33.33 1.14.24 2.04.75.89.51 1.43 1.4.54.88.54 2.27 0 1.29-.64 2.5-.63 1.22-1.84 2.17-1.2.95-2.96 1.53-1.76.58-4 .58-2.21 0-3.84-.43t-2.72-1.14q-1.08-.71-1.61-1.64-.53-.93-.53-1.94 0-1.37.82-2.29.83-.92 2.27-1.47-.78-.4-1.23-1.07-.46-.66-.46-1.74 0-.44.16-.91.17-.46.48-.92.31-.45.79-.86.47-.41 1.12-.73-1.48-.8-2.33-2.13-.84-1.33-.84-3.12 0-1.44.58-2.61.57-1.17 1.61-2 1.04-.82 2.45-1.26 1.42-.44 3.09-.44 1.25 0 2.35.26 1.11.26 2.02.75Z"/></svg>